<svg width="67" height="13" viewBox="0 0 67 13" fill="none" xmlns="http://www.w3.org/2000/svg">
<path d="M10.625 11.25C10.625 11.7333 10.45 12.15 10.1 12.5C9.76667 12.8333 9.35833 13 8.875 13H1.875C1.39167 13 0.975 12.8333 0.625 12.5C0.291667 12.15 0.125 11.7333 0.125 11.25V2.5C0.125 2.01667 0.291667 1.60833 0.625 1.275C0.975 0.925 1.39167 0.75 1.875 0.75H8.875C9.35833 0.75 9.76667 0.925 10.1 1.275C10.45 1.60833 10.625 2.01667 10.625 2.5V4.25H8.625V2.5H2.125V11.25H8.625V9.5H10.625V11.25ZM24.8857 13H22.8857V9.5H16.3857V13H14.3857V2.5C14.3857 2.01667 14.5524 1.60833 14.8857 1.275C15.2357 0.925 15.6524 0.75 16.1357 0.75H24.8857V13ZM22.8857 7.75V2.5H16.3857V9.25L17.8857 7.75H22.8857ZM40.126 13H37.576L32.376 7.75H37.876V2.5H31.376V13H29.376V4.225L31.126 2.5H29.376V0.75H38.126C38.5926 0.75 39.001 0.925 39.351 1.275C39.701 1.625 39.876 2.03333 39.876 2.5V7.25C39.876 8.58333 39.2926 9.25 38.126 9.25H36.626V9.525L40.126 13ZM54.2559 11.25C54.2559 11.7167 54.0809 12.125 53.7309 12.475C53.3809 12.825 52.9725 13 52.5059 13H43.7559V4.25L45.5059 2.5H43.7559V0.75H52.5059C52.9725 0.75 53.3809 0.925 53.7309 1.275C54.0809 1.625 54.2559 2.03333 54.2559 2.5V11.25ZM52.2559 11.25V2.5H45.7559V12.75L47.2559 11.25H52.2559ZM66.874 11.25C66.874 11.7333 66.699 12.15 66.349 12.5C66.0157 12.8333 65.6074 13 65.124 13H58.124V11.25H64.874V7.75H59.874C59.3907 7.75 58.974 7.58333 58.624 7.25C58.2907 6.9 58.124 6.48333 58.124 6V2.5C58.124 2.01667 58.2907 1.60833 58.624 1.275C58.974 0.925 59.3907 0.75 59.874 0.75H66.874V2.5H60.124V6H65.124C65.6074 6 66.0157 6.175 66.349 6.525C66.699 6.85833 66.874 7.26667 66.874 7.75V11.25Z" fill="#366EFF"/>
</svg>
