<svg width="160" height="22" viewBox="0 0 160 22" fill="none" xmlns="http://www.w3.org/2000/svg">
<path d="M4.33 2.644V21H0.664V2.644H4.33ZM15.3424 17.854V21H13.4184C11.8064 21 10.5671 20.61 9.70042 19.83C8.85109 19.05 8.42642 17.75 8.42642 15.93V9.69H6.42442V6.596H8.42642V3.034H12.0924V6.596H15.3164V9.69H12.0924V15.982C12.0924 16.6753 12.2311 17.1607 12.5084 17.438C12.7858 17.7153 13.2538 17.854 13.9124 17.854H15.3424ZM27.3144 10.21V13.252H16.2644V10.21H27.3144ZM31.1738 2.462C31.1738 1.87267 31.3818 1.396 31.7978 1.032C32.2138 0.650666 32.7598 0.459999 33.4358 0.459999C34.1118 0.459999 34.6578 0.650666 35.0738 1.032C35.4898 1.396 35.6978 1.87267 35.6978 2.462C35.6978 3.034 35.4898 3.51067 35.0738 3.892C34.6578 4.256 34.1118 4.438 33.4358 4.438C32.7598 4.438 32.2138 4.256 31.7978 3.892C31.3818 3.51067 31.1738 3.034 31.1738 2.462ZM35.2558 6.596V21H31.5898V6.596H35.2558ZM47.1522 6.388C48.8162 6.388 50.1422 6.934 51.1302 8.026C52.1182 9.118 52.6122 10.652 52.6122 12.628V21H48.9722V13.044C48.9722 11.9 48.6775 11.016 48.0882 10.392C47.4989 9.75067 46.6929 9.43 45.6702 9.43C44.6302 9.43 43.7982 9.768 43.1742 10.444C42.5502 11.12 42.2382 12.0907 42.2382 13.356V21H38.5722V6.596H42.2382V9.482C42.6195 8.51133 43.2435 7.75733 44.1102 7.22C44.9942 6.66533 46.0082 6.388 47.1522 6.388ZM62.3118 6.414C64.1665 6.414 65.7092 6.91667 66.9398 7.922C68.1878 8.92733 68.9678 10.2967 69.2798 12.03H65.4058C65.2498 11.2673 64.8945 10.6693 64.3398 10.236C63.7852 9.78533 63.0832 9.56 62.2338 9.56C61.2632 9.56 60.4485 9.924 59.7898 10.652C59.1485 11.3627 58.8278 12.4113 58.8278 13.798C58.8278 15.1847 59.1485 16.242 59.7898 16.97C60.4485 17.6807 61.2632 18.036 62.2338 18.036C63.0832 18.036 63.7852 17.8193 64.3398 17.386C64.8945 16.9353 65.2498 16.3287 65.4058 15.566H69.2798C68.9678 17.2993 68.1878 18.6687 66.9398 19.674C65.7092 20.6793 64.1665 21.182 62.3118 21.182C60.9078 21.182 59.6598 20.8873 58.5678 20.298C57.4758 19.6913 56.6265 18.8333 56.0198 17.724C55.4132 16.6147 55.1098 15.306 55.1098 13.798C55.1098 12.29 55.4132 10.9813 56.0198 9.872C56.6265 8.74533 57.4758 7.88733 58.5678 7.298C59.6598 6.70867 60.9078 6.414 62.3118 6.414ZM85.6647 6.596V21H81.9987V18.088C81.6174 19.0587 80.9847 19.8213 80.1007 20.376C79.234 20.9133 78.2287 21.182 77.0847 21.182C75.4207 21.182 74.0947 20.636 73.1067 19.544C72.1187 18.452 71.6247 16.9267 71.6247 14.968V6.596H75.2647V14.552C75.2647 15.696 75.5594 16.5887 76.1487 17.23C76.738 17.854 77.5354 18.166 78.5407 18.166C79.598 18.166 80.4387 17.828 81.0627 17.152C81.6867 16.476 81.9987 15.5053 81.9987 14.24V6.596H85.6647ZM97.604 6.414C98.8173 6.414 99.9093 6.70867 100.88 7.298C101.851 7.88733 102.605 8.74533 103.142 9.872C103.697 10.9813 103.974 12.29 103.974 13.798C103.974 15.306 103.697 16.6233 103.142 17.75C102.605 18.8593 101.851 19.7087 100.88 20.298C99.9093 20.8873 98.8173 21.182 97.604 21.182C96.3907 21.182 95.3507 20.896 94.484 20.324C93.6347 19.7347 93.028 18.9547 92.664 17.984V21H88.998V1.76H92.664V9.586C93.028 8.61533 93.6347 7.844 94.484 7.272C95.3507 6.7 96.3907 6.414 97.604 6.414ZM96.46 9.612C95.3507 9.612 94.432 9.99333 93.704 10.756C92.9933 11.5013 92.638 12.5153 92.638 13.798C92.638 15.0633 92.9933 16.0773 93.704 16.84C94.432 17.5853 95.3507 17.958 96.46 17.958C97.604 17.958 98.5227 17.594 99.216 16.866C99.9093 16.1207 100.256 15.098 100.256 13.798C100.256 12.498 99.9093 11.4753 99.216 10.73C98.5227 9.98467 97.604 9.612 96.46 9.612ZM112.21 6.414C113.424 6.414 114.464 6.7 115.33 7.272C116.197 7.844 116.812 8.61533 117.176 9.586V6.596H120.816V21H117.176V17.984C116.812 18.9547 116.197 19.7347 115.33 20.324C114.464 20.896 113.424 21.182 112.21 21.182C110.997 21.182 109.905 20.8873 108.934 20.298C107.964 19.7087 107.201 18.8593 106.646 17.75C106.109 16.6233 105.84 15.306 105.84 13.798C105.84 12.29 106.109 10.9813 106.646 9.872C107.201 8.74533 107.964 7.88733 108.934 7.298C109.905 6.70867 110.997 6.414 112.21 6.414ZM113.354 9.612C112.21 9.612 111.292 9.98467 110.598 10.73C109.905 11.4753 109.558 12.498 109.558 13.798C109.558 15.098 109.905 16.1207 110.598 16.866C111.292 17.594 112.21 17.958 113.354 17.958C114.464 17.958 115.374 17.5853 116.084 16.84C116.812 16.0773 117.176 15.0633 117.176 13.798C117.176 12.5153 116.812 11.5013 116.084 10.756C115.374 9.99333 114.464 9.612 113.354 9.612ZM131.835 17.854V21H129.911C128.299 21 127.059 20.61 126.193 19.83C125.343 19.05 124.919 17.75 124.919 15.93V9.69H122.917V6.596H124.919V3.034H128.585V6.596H131.809V9.69H128.585V15.982C128.585 16.6753 128.723 17.1607 129.001 17.438C129.278 17.7153 129.746 17.854 130.405 17.854H131.835ZM141.129 6.414C142.533 6.414 143.789 6.70867 144.899 7.298C146.025 7.88733 146.909 8.74533 147.551 9.872C148.192 10.9813 148.513 12.29 148.513 13.798C148.513 15.306 148.192 16.6147 147.551 17.724C146.909 18.8333 146.025 19.6913 144.899 20.298C143.789 20.8873 142.533 21.182 141.129 21.182C139.725 21.182 138.459 20.8873 137.333 20.298C136.223 19.6913 135.348 18.8333 134.707 17.724C134.065 16.6147 133.745 15.306 133.745 13.798C133.745 12.29 134.065 10.9813 134.707 9.872C135.348 8.74533 136.223 7.88733 137.333 7.298C138.459 6.70867 139.725 6.414 141.129 6.414ZM141.129 9.586C140.106 9.586 139.239 9.95 138.529 10.678C137.818 11.3887 137.463 12.4287 137.463 13.798C137.463 15.1673 137.818 16.216 138.529 16.944C139.239 17.6547 140.106 18.01 141.129 18.01C142.151 18.01 143.018 17.6547 143.729 16.944C144.439 16.216 144.795 15.1673 144.795 13.798C144.795 12.4287 144.439 11.3887 143.729 10.678C143.018 9.95 142.151 9.586 141.129 9.586ZM154.769 9.352C155.307 8.43333 156.017 7.714 156.901 7.194C157.785 6.65667 158.773 6.388 159.865 6.388V10.314H158.799C156.113 10.314 154.769 11.562 154.769 14.058V21H151.103V6.596H154.769V9.352Z" fill="#2D2E46"/>
</svg>
