<svg width="24" height="24" viewBox="0 0 24 24" fill="none" xmlns="http://www.w3.org/2000/svg">
<path fill-rule="evenodd" clip-rule="evenodd" d="M4.96572 5.03367C6.97027 4.83122 8.97506 4.72998 10.98 4.72998C14.3454 4.72998 17.7201 4.90127 21.074 5.23364C21.4861 5.27448 21.7872 5.64175 21.7463 6.05394C21.7055 6.46614 21.3382 6.76717 20.926 6.72632C17.6199 6.39869 14.2946 6.22998 10.98 6.22998C9.02529 6.22998 7.07045 6.3287 5.11537 6.52618L5.11317 6.5264L3.07317 6.7264C2.66093 6.76682 2.29399 6.4654 2.25357 6.05316C2.21316 5.64092 2.51458 5.27397 2.92681 5.23356L4.96572 5.03367Z" fill="black"/>
<path fill-rule="evenodd" clip-rule="evenodd" d="M9.45958 3.78456L9.23964 5.09421C9.17104 5.50271 8.78427 5.77824 8.37578 5.70964C7.96729 5.64104 7.69175 5.25428 7.76035 4.84578L7.98035 3.53579C7.9842 3.51297 7.98815 3.48908 7.99216 3.46487C8.06102 3.04899 8.16203 2.43887 8.56873 1.97769C9.04279 1.44012 9.76609 1.25 10.69 1.25H13.31C14.2451 1.25 14.9677 1.4554 15.439 1.99845C15.8462 2.46776 15.9447 3.08006 16.0105 3.48891C16.0137 3.5088 16.0168 3.52822 16.0199 3.54711L16.2395 4.84486C16.3086 5.25326 16.0335 5.64037 15.6251 5.70949C15.2167 5.7786 14.8296 5.50355 14.7605 5.09514L14.5398 3.79069C14.4561 3.27767 14.4032 3.09352 14.306 2.98155C14.2523 2.9196 14.0649 2.75 13.31 2.75H10.69C9.9239 2.75 9.7422 2.91488 9.69376 2.96981C9.60165 3.07427 9.54966 3.24976 9.45958 3.78456Z" fill="black"/>
<path fill-rule="evenodd" clip-rule="evenodd" d="M18.8983 8.39154C19.3117 8.41822 19.6251 8.77494 19.5984 9.18829L18.9482 19.2624L18.9468 19.2814C18.9205 19.6576 18.8915 20.0714 18.814 20.4563C18.7336 20.8555 18.5919 21.2768 18.3048 21.6506C17.7036 22.4333 16.6806 22.75 15.21 22.75H8.78999C7.31943 22.75 6.29636 22.4333 5.69519 21.6506C5.40809 21.2768 5.2664 20.8555 5.186 20.4563C5.10847 20.0714 5.0795 19.6576 5.05315 19.2814L5.05154 19.2583L4.40155 9.18829C4.37487 8.77494 4.68833 8.41822 5.10168 8.39154C5.51503 8.36486 5.87175 8.67832 5.89843 9.09167L6.54816 19.1576C6.5482 19.1582 6.54825 19.1589 6.5483 19.1596C6.57652 19.5624 6.60041 19.8818 6.65648 20.1602C6.71108 20.4313 6.78689 20.6094 6.88479 20.7369C7.05362 20.9567 7.47055 21.25 8.78999 21.25H15.21C16.5294 21.25 16.9464 20.9567 17.1152 20.7369C17.2131 20.6094 17.2889 20.4313 17.3435 20.1602C17.3996 19.8818 17.4235 19.5624 17.4517 19.1596C17.4517 19.1589 17.4518 19.1582 17.4518 19.1576L18.1015 9.09167C18.1282 8.67832 18.4849 8.36486 18.8983 8.39154Z" fill="black"/>
<path fill-rule="evenodd" clip-rule="evenodd" d="M9.57999 16.5C9.57999 16.0858 9.91577 15.75 10.33 15.75H13.66C14.0742 15.75 14.41 16.0858 14.41 16.5C14.41 16.9142 14.0742 17.25 13.66 17.25H10.33C9.91577 17.25 9.57999 16.9142 9.57999 16.5Z" fill="black"/>
<path fill-rule="evenodd" clip-rule="evenodd" d="M8.75 12.5C8.75 12.0858 9.08579 11.75 9.5 11.75H14.5C14.9142 11.75 15.25 12.0858 15.25 12.5C15.25 12.9142 14.9142 13.25 14.5 13.25H9.5C9.08579 13.25 8.75 12.9142 8.75 12.5Z" fill="black"/>
</svg>
